<?xml version="1.0" encoding="UTF-8"?>
<svg version="1.1" xmlns="http://www.w3.org/2000/svg" width="1469" height="1238">
<path d="M0 0 C12.92215347 -0.04793042 25.84430218 -0.08411926 38.76651976 -0.10951438 C46.64666248 -0.125335 54.52667517 -0.14963526 62.40675142 -0.18576423 C68.37607449 -0.21215819 74.34531588 -0.22236578 80.31470028 -0.226639 C82.74337236 -0.23084806 85.17204224 -0.24017773 87.60067145 -0.25520869 C105.3481804 -0.36080696 120.88157529 0.97488919 137.65155641 7.26278404 C139.26018556 7.85760582 139.26018556 7.85760582 140.90131227 8.4644442 C161.84427168 16.36156374 179.15601391 27.41959018 195.15155641 43.07528404 C196.1454236 43.99374107 196.1454236 43.99374107 197.15936891 44.93075279 C218.52821748 65.05722645 233.6325492 96.96173321 235.15155641 126.07528404 C235.2901587 132.07923288 235.29372979 138.08066538 235.28958742 144.08594994 C235.29200938 145.89655555 235.29487285 147.70716061 235.29813675 149.5177649 C235.30584604 154.46716934 235.30750679 159.41655988 235.30818788 164.36596958 C235.3100354 169.71363328 235.31764642 175.061289 235.32466737 180.40894798 C235.33616838 189.66755482 235.34442532 198.92615986 235.3507866 208.18477158 C235.36113199 222.8189676 235.38169889 237.45314108 235.40390626 252.08732323 C235.41138493 257.09769818 235.41879875 262.10807322 235.42619363 267.11844829 C235.4280442 268.37039132 235.42989476 269.62233434 235.43180141 270.91221503 C235.45270873 285.14812843 235.47154827 299.3840443 235.48944703 313.61996178 C235.49190431 315.57107546 235.49190431 315.57107546 235.49441122 317.56160559 C235.52072185 338.66150121 235.53935357 359.76139858 235.55603894 380.86130369 C235.57345419 402.53425548 235.60228946 424.20717291 235.64092831 445.88009725 C235.66432785 459.24410357 235.67832284 472.60805387 235.68025594 485.97208084 C235.68236391 495.12484703 235.6952813 504.27755742 235.71673527 513.43029857 C235.72877075 518.71139942 235.73591114 523.99238949 235.73002283 529.27350334 C235.72472805 534.10873846 235.73320173 538.94374755 235.7525792 543.77894492 C235.75715422 545.52704657 235.75668497 547.2751703 235.75063082 549.02326745 C235.71831486 559.26949415 236.12185124 567.84282466 241.15155641 577.07528404 C242.83174695 578.25185872 242.83174695 578.25185872 245.15155641 579.07528404 C246.24983766 579.55868248 247.34811891 580.04208092 248.47968141 580.54012779 C255.27775246 583.08651344 262.6016188 583.24269192 269.77265016 583.89169029 C280.74582984 584.99280521 280.74582984 584.99280521 285.15155641 588.07528404 C286.02655641 590.76278404 286.02655641 590.76278404 286.15155641 593.07528404 C280.59509928 597.62711388 274.34862985 597.89271058 267.36640016 598.53622154 C266.50079469 598.61606285 265.63518922 598.69590416 264.74335328 598.7781649 C263.01256452 598.93115313 261.28075617 599.07312698 259.54804078 599.20248131 C251.31184666 599.90468619 242.73409948 601.46676009 237.15155641 608.07528404 C231.80400566 615.39158481 228.64025861 623.60632129 225.27655641 631.95028404 C221.40974491 641.48783552 217.27899532 649.79246461 211.15155641 658.07528404 C210.73825075 658.64359947 210.32494508 659.2119149 209.899115 659.79745201 C199.02118435 674.66000262 186.2930272 686.62336164 171.15155641 697.07528404 C169.7632361 698.04208092 169.7632361 698.04208092 168.34686891 699.02840904 C161.52515883 703.36029616 154.11951093 706.29393838 146.65155641 709.32528404 C145.08449953 709.96264488 145.08449953 709.96264488 143.48578493 710.6128817 C126.84820406 717.17091255 111.09981791 718.22789595 93.40956727 718.20899681 C91.73665692 718.21086816 90.063747 718.21317015 88.39083777 718.21586213 C83.8217264 718.22194646 79.25263341 718.22185053 74.68351892 718.22066776 C69.74470539 718.2204629 64.80589762 718.22599063 59.86708681 718.23072533 C50.20154361 718.23901387 40.53600651 718.24177935 30.87046005 718.2423377 C23.01000235 718.2428137 15.14954666 718.24487263 7.2890896 718.24803833 C-15.0209339 718.25683988 -37.3309526 718.26145847 -59.64097784 718.26070786 C-61.44318145 718.26064792 -61.44318145 718.26064792 -63.2817932 718.26058678 C-64.4847375 718.2605459 -65.6876818 718.26050501 -66.92707896 718.2604629 C-86.41788355 718.26005653 -105.90866881 718.26962493 -125.39946781 718.28372514 C-145.43618105 718.29810535 -165.47288487 718.30499443 -185.5096034 718.30413137 C-196.74916761 718.30379997 -207.98871155 718.30652179 -219.22827109 718.31730942 C-228.79819431 718.32643606 -238.36808808 718.32857192 -247.93801378 718.32179999 C-252.81504057 718.31854575 -257.69201093 718.31843833 -262.56903227 718.32715324 C-267.04441684 718.33506781 -271.51970066 718.33353675 -275.99508291 718.32486911 C-277.60336105 718.32334496 -279.2116469 718.3251087 -280.81991594 718.33072919 C-295.17955494 718.37753883 -309.71619944 717.87434703 -323.34844359 712.95028404 C-324.22516722 712.64389 -325.10189086 712.33749596 -326.00518187 712.02181724 C-360.59960234 699.620103 -389.62050668 675.84226988 -406.84844359 643.07528404 C-409.34409235 637.78723464 -411.67012942 632.42878744 -413.91851195 627.03133873 C-418.63035444 615.80000504 -422.97962635 605.71802708 -434.75933226 600.79574303 C-439.58959266 599.12996081 -444.70661283 598.47392223 -449.72930297 597.61434654 C-450.58717406 597.45708092 -451.44504515 597.29981529 -452.32891234 597.13778404 C-453.10130248 597.0050106 -453.87369261 596.87223717 -454.66948851 596.73544029 C-457.20674908 595.96672852 -458.82579494 594.76355595 -460.84844359 593.07528404 C-460.72344359 590.76278404 -460.72344359 590.76278404 -459.84844359 588.07528404 C-454.45331722 584.73182545 -448.70478938 583.84339506 -442.56914672 582.70223717 C-436.07671776 581.39057992 -430.87695679 579.54239469 -426.53594359 574.26278404 C-423.0178132 567.61742665 -422.55596691 561.76543978 -422.58342894 554.38601402 C-422.57904767 553.42815947 -422.5746664 552.47030491 -422.57015236 551.48342446 C-422.55785968 548.28320215 -422.55963865 545.08314437 -422.56133422 541.88290123 C-422.55530817 539.58447246 -422.54838345 537.28604589 -422.54062804 534.9876223 C-422.52574868 530.04185817 -422.51699217 525.09613436 -422.51291808 520.15034965 C-422.50619845 512.32517699 -422.48443599 504.50009039 -422.46038207 496.67495445 C-422.42775793 485.6995204 -422.40119409 474.72408625 -422.38018187 463.74862389 C-422.37884688 463.05267334 -422.37751189 462.35672279 -422.37613644 461.63968284 C-422.36671191 456.70155026 -422.35754975 451.76341721 -422.34844359 446.82528404 C-422.33805041 441.19133186 -422.32753137 435.55737994 -422.31670531 429.92342857 C-422.31537457 429.22954311 -422.31404382 428.53565765 -422.31267276 427.82074536 C-422.29020296 416.22991128 -422.25990797 404.63911061 -422.22431286 393.0483096 C-422.20100724 385.27470414 -422.18723384 377.5011584 -422.18081816 369.72752146 C-422.17486548 364.88357468 -422.16075655 360.0396761 -422.14447363 355.19575409 C-422.13861444 352.95569522 -422.13612192 350.71562453 -422.13731345 348.47555832 C-422.13847969 345.40776675 -422.12739947 342.34024358 -422.11345824 339.27248863 C-422.11675721 338.39493188 -422.12005619 337.51737512 -422.12345513 336.61322574 C-422.06931473 329.34901347 -421.6847466 321.60098583 -418.28594359 315.07528404 C-412.27553912 310.14367012 -405.286683 309.56841524 -397.71953734 309.79012779 C-392.42136095 310.31634123 -388.48059166 311.57198977 -384.47344359 315.26278404 C-380.06950508 322.88498531 -380.55446187 331.25129017 -380.54348334 339.79494766 C-380.53978377 342.11276837 -380.52296123 344.43017471 -380.50272521 346.74790672 C-380.44765073 353.3322956 -380.41667189 359.91674322 -380.39214476 366.50130943 C-380.37618774 370.54368231 -380.34589028 374.58575703 -380.30738028 378.62797455 C-380.29580814 380.15839233 -380.28980062 381.68886357 -380.28969916 383.2193251 C-380.44474377 396.95693661 -380.44474377 396.95693661 -374.53594359 408.95028404 C-368.83699085 413.45643272 -363.66012542 415.19724262 -356.50877246 415.20671181 C-355.41953913 415.21055295 -354.33030581 415.2143941 -353.20806541 415.21835164 C-352.01187999 415.21748516 -350.81569456 415.21661868 -349.58326109 415.21572594 C-348.31212515 415.21869706 -347.04098921 415.22166818 -345.73133399 415.22472934 C-342.20045184 415.23279731 -338.66959001 415.2345888 -335.13869973 415.2353268 C-331.33146749 415.23717773 -327.52424579 415.2447253 -323.71701964 415.25146202 C-315.39047293 415.26504476 -307.06393104 415.27107006 -298.7373751 415.27547268 C-293.53778076 415.27823539 -288.33818827 415.28247281 -283.13859519 415.28697685 C-268.74139197 415.29916979 -254.34419025 415.30946883 -239.94698199 415.31285194 C-239.02549182 415.31307151 -238.10400165 415.31329108 -237.15458754 415.31351729 C-236.2308953 415.31373557 -235.30720306 415.31395385 -234.35552015 415.31417874 C-232.48377653 415.31462221 -230.61203291 415.31506877 -228.74028929 415.31551842 C-227.34761578 415.31585056 -227.34761578 415.31585056 -225.92680745 415.31618942 C-210.88551238 415.3201367 -195.84426577 415.33758847 -180.80298942 415.36087794 C-165.35893792 415.38459793 -149.91491073 415.3970541 -134.47084071 415.39821986 C-125.80016062 415.39913629 -117.12954367 415.40488058 -108.45888098 415.42303947 C-101.07487356 415.43844924 -93.69094879 415.44355578 -86.30692834 415.43530137 C-82.54075271 415.43139787 -78.77474349 415.43230968 -75.0085884 415.44635872 C-70.92178719 415.46146416 -66.83536 415.45322224 -62.7485443 415.44277672 C-60.97099657 415.45486132 -60.97099657 415.45486132 -59.15753879 415.46719006 C-52.26678808 415.42599427 -44.83602627 415.30545797 -39.23086586 410.76495198 C-36.1774365 407.44703401 -34.84844359 404.54422755 -34.84844359 400.07528404 C-35.84334014 394.60335303 -37.94187838 390.71577535 -41.47344359 386.45028404 C-43.67258207 383.73425404 -44.92635793 381.87695662 -46.22344359 378.57528404 C-45.63698994 373.10171661 -42.45802377 370.06128226 -38.84844359 366.07528404 C-37.51496887 364.59624483 -36.181635 363.11707862 -34.84844359 361.63778404 C-34.17813109 360.89786217 -33.50781859 360.15794029 -32.81719359 359.39559654 C-30.80899344 357.02878922 -29.08040424 354.58710737 -27.34844359 352.01278404 C-21.67230646 343.76006331 -15.16864985 338.31656579 -6.68047484 333.03231529 C-0.98595283 329.09720422 3.00628109 324.68708961 5.15155641 318.07528404 C5.70077956 314.26647873 5.72343772 310.54316937 5.65155641 306.70028404 C5.63657106 305.63954674 5.62158571 304.57880943 5.60614625 303.48592857 C4.91438162 277.85199102 -6.49578737 256.87502619 -20.15313109 235.70614342 C-53.14786994 184.5034784 -53.14786994 184.5034784 -48.84844359 158.95028404 C-44.24459864 138.73878534 -34.53984933 121.54507269 -20.84844359 106.07528404 C-20.21035765 105.35252281 -19.57227172 104.62976158 -18.91484984 103.88509849 C-13.44673059 97.74245795 -7.78977773 91.82574997 -1.97344359 86.01278404 C-1.09937865 85.13662437 -0.22531371 84.26046471 0.67523805 83.35775474 C5.92429091 78.14477785 11.25615928 73.37364066 17.07733766 68.81356529 C21.28634054 65.28624649 23.67181578 61.81434382 25.15155641 56.45028404 C25.15155641 52.54596291 24.63554532 51.05607073 22.15155641 48.07528404 C17.31871924 44.51424613 12.69267986 43.95184958 6.8121256 43.94385628 C5.74836849 43.94001513 4.68461138 43.93617399 3.58861921 43.93221644 C2.42599386 43.93308293 1.26336852 43.93394941 0.0655121 43.93484215 C-1.17436557 43.93187102 -2.41424325 43.9288999 -3.69169297 43.92583875 C-7.13086297 43.9186648 -10.56998301 43.91597992 -14.00915691 43.91524128 C-17.71967025 43.91338831 -21.43017282 43.90583958 -25.14067992 43.89910606 C-33.25469995 43.88553007 -41.36871504 43.8794987 -49.48274454 43.8750954 C-54.55289828 43.87233083 -59.62305012 43.86809299 -64.69320258 43.86359123 C-78.74043907 43.85139779 -92.78767405 43.84109975 -106.83491572 43.83771614 C-107.73383968 43.83749657 -108.63276363 43.83727701 -109.55892771 43.83705079 C-110.45996992 43.83683251 -111.36101212 43.83661423 -112.28935864 43.83638934 C-114.11512459 43.83594588 -115.94089053 43.83549932 -117.76665648 43.83504967 C-119.12511296 43.83471752 -119.12511296 43.83471752 -120.511013 43.83437867 C-135.1705755 43.83043453 -149.83008816 43.81299259 -164.48963143 43.78969014 C-179.5529246 43.76594 -194.61619282 43.75351256 -209.67950501 43.75234822 C-218.13179515 43.75143333 -226.58402043 43.74572838 -235.03629263 43.72752861 C-242.23714445 43.71207788 -249.43791136 43.70703622 -256.63877662 43.71526671 C-260.3083676 43.71915617 -263.97778789 43.71832792 -267.64735755 43.70420936 C-271.63820856 43.6889962 -275.62868003 43.69738757 -279.6195465 43.70779137 C-280.76209535 43.69973496 -281.9046442 43.69167856 -283.08181574 43.68337802 C-308.70408659 43.83867843 -334.84578525 56.0604494 -352.84844359 74.07528404 C-371.11765947 93.37119966 -379.84916185 120.34657156 -380.05938109 146.44637779 C-380.08744 148.42229767 -380.11610439 150.39820903 -380.14531859 152.37411217 C-380.18653292 155.44580653 -380.22348264 158.51733992 -380.24981078 161.58920006 C-380.27760974 164.58357997 -380.32345851 167.5772694 -380.37188109 170.57137779 C-380.37513396 171.47585152 -380.37838683 172.38032524 -380.38173827 173.31220726 C-380.50513693 179.80098878 -380.98520486 187.45075854 -385.1583496 192.73347191 C-390.56200138 197.55891748 -396.34023828 198.49324462 -403.32109984 198.32528404 C-408.72143455 197.79109328 -412.55114123 196.1469686 -416.72344359 192.70028404 C-422.73335901 185.27627088 -422.00576704 175.53546888 -422.01641234 166.42684654 C-422.02140494 164.90974586 -422.02140494 164.90974586 -422.0264984 163.36199669 C-422.03154221 161.22557753 -422.03390752 159.08915055 -422.03374632 156.95272545 C-422.03591356 153.74474144 -422.05404342 150.53711273 -422.07305297 147.32919029 C-422.16428963 115.27533036 -422.16428963 115.27533036 -417.22344359 102.07528404 C-416.83539549 100.98328697 -416.83539549 100.98328697 -416.43950804 99.86922935 C-409.83829286 81.73483428 -401.44966916 65.79702533 -388.84844359 51.07528404 C-388.15106078 50.25544029 -387.45367797 49.43559654 -386.73516234 48.59090904 C-364.19752676 22.8107362 -331.50380309 4.70150863 -297.16811427 1.75999264 C-284.72436708 0.98675795 -272.30384386 0.90217131 -259.83892211 0.86996178 C-257.45624023 0.8603553 -255.07355996 0.85034373 -252.69088133 0.839963 C-246.89909535 0.81581428 -241.10730657 0.79599157 -235.31549779 0.77821025 C-228.43294233 0.75688612 -221.55040859 0.73050564 -214.66787131 0.70403878 C-202.2257142 0.65636615 -189.78354548 0.61321501 -177.34136351 0.57259849 C-165.59004769 0.5342334 -153.83874878 0.49280601 -142.08745726 0.44759849 C-140.65592651 0.44210544 -139.22439576 0.43661398 -137.792865 0.43112413 C-137.08491263 0.4284089 -136.37696027 0.42569367 -135.6475548 0.42289616 C-134.94003106 0.42018343 -134.23250731 0.41747069 -133.50354346 0.41467575 C-132.44312914 0.41060986 -132.44312914 0.41060986 -131.3612923 0.40646183 C-103.31913263 0.29910824 -75.2769674 0.21130098 -47.2346836 0.14361862 C-44.33292656 0.1365714 -41.43116965 0.12947545 -38.52941283 0.12234215 C-37.80892244 0.1205763 -37.08843205 0.11881045 -36.34610862 0.1169911 C-24.23070191 0.08698733 -12.11535848 0.04518017 0 0 Z M54.78046266 62.41903404 C50.5567178 65.77761091 46.24493698 68.99905957 41.90155641 72.20028404 C29.61531595 81.33333828 18.24474243 91.53933713 7.15155641 102.07528404 C6.63319215 102.56496666 6.11482789 103.05464928 5.58075563 103.55917076 C-9.72832644 118.11023497 -27.31882297 138.14386383 -29.0095764 160.17489342 C-29.48247818 185.44764441 -20.90916789 201.64247008 -7.44609984 222.48544029 C-0.02485029 233.97993257 7.16069624 245.57288891 13.15155641 257.88778404 C13.50129518 258.59120933 13.85103395 259.29463463 14.21137086 260.01937584 C19.9790976 272.31739948 21.91759678 285.68563079 23.71405641 299.01278404 C25.304243 315.5947609 25.304243 315.5947609 34.15155641 329.07528404 C37.35343014 331.15366813 40.69127213 332.90300853 44.08905641 334.63778404 C53.88521762 339.70426976 60.27124241 344.76478752 66.52655641 353.88778404 C70.52479184 359.5920474 74.42102058 364.92016234 79.66327516 369.56747154 C82.11430203 372.05066412 83.03305891 374.42354781 83.65155641 377.82528404 C82.91581579 382.60759807 80.11761727 385.37132512 77.15155641 389.07528404 C73.87629366 393.52170135 72.48195019 397.42073697 72.77265016 402.93465904 C73.50731886 407.08515848 75.43440133 409.80572862 78.79999391 412.29403404 C84.88324687 416.01305332 90.48517422 416.22796756 97.43915407 416.25228599 C98.26102205 416.25885719 99.08289003 416.26542839 99.9296631 416.27219871 C102.64164944 416.29185995 105.35358051 416.3035798 108.06561891 416.31356529 C109.46134693 416.31967858 109.46134693 416.31967858 110.88527147 416.32591537 C115.81273525 416.34674799 120.74017145 416.36106048 125.66766969 416.37045006 C130.73469528 416.38149396 135.80127927 416.41587869 140.8681492 416.45562176 C144.78375619 416.48187855 148.6992595 416.49015003 152.61494676 416.49373154 C154.48149567 416.49857598 156.34804062 416.51012819 158.21450273 416.52876953 C173.82767668 416.98284411 173.82767668 416.98284411 187.80502931 410.80473045 C194.18689948 404.0891077 194.59093208 394.71315776 194.53250734 385.99554161 C194.5395273 384.37054471 194.5395273 384.37054471 194.54668907 382.7127196 C194.55861015 379.09956142 194.54919267 375.48678456 194.53974 371.87362389 C194.54380711 369.27597556 194.54914977 366.67832897 194.55567018 364.08068565 C194.56898222 357.76620688 194.56614031 351.45183533 194.55743226 345.13735243 C194.55064253 339.99991033 194.54974456 334.86249817 194.55300371 329.72505287 C194.55369325 328.62600912 194.55369325 328.62600912 194.55439673 327.50476246 C194.55535598 326.01598022 194.55632862 324.527198 194.55731451 323.03841578 C194.56586193 309.08877816 194.55604633 295.13919975 194.53991341 281.18957185 C194.52652766 269.24633551 194.52882517 257.30318674 194.54266969 245.35995201 C194.5587661 231.46773487 194.56502033 217.57556969 194.5558329 203.68334452 C194.55487734 202.19836629 194.55393423 200.71338805 194.55300371 199.2284098 C194.55254088 198.49792204 194.55207805 197.76743428 194.5516012 197.01481053 C194.5490222 191.89261524 194.55335902 186.77045316 194.56044237 181.64826301 C194.5697922 174.73546199 194.56302486 167.82282781 194.5457596 160.9100428 C194.54181288 158.38139846 194.54289743 155.85274016 194.54954759 153.32410149 C194.58994847 136.39292461 194.0803057 121.19137294 187.02655641 105.51278404 C186.63403688 104.62292808 186.24151735 103.73307213 185.83710328 102.81625084 C180.4066375 90.83479851 173.49245803 80.41618566 164.15155641 71.07528404 C163.45546266 70.37919029 162.75936891 69.68309654 162.04218141 68.96590904 C144.47657145 52.42602813 118.75313556 42.61035736 94.77655641 42.86434654 C78.432915 43.8153774 67.11581754 52.60594475 54.78046266 62.41903404 Z M153.17398302 457.09668068 C145.56809044 457.12221358 137.9624988 457.18573062 130.3569359 457.25918678 C126.20414845 457.29883032 122.05158097 457.33097017 117.89862672 457.34628014 C113.83624134 457.3615077 109.77442481 457.39601349 105.71229402 457.44359306 C104.17992962 457.4582925 102.64748442 457.4663184 101.11504976 457.46716789 C91.56384292 457.47780805 82.10475197 457.50310352 74.71405641 464.32528404 C69.83624804 472.91022678 69.5071782 480.93519634 69.06757203 490.61239342 C68.38479582 501.91613297 65.45979452 512.03121884 57.15155641 520.07528404 C54.5193929 522.15239969 51.80851786 524.11449175 49.08905641 526.07528404 C43.0094022 530.46587829 38.57402739 534.27407973 35.15155641 541.07528404 C33.94566251 543.34741374 32.7371841 545.61817305 31.52655641 547.88778404 C30.70284547 549.50620201 30.70284547 549.50620201 29.86249391 551.15731529 C27.55789257 555.08776552 25.65862729 557.58384788 21.27655641 559.01278404 C17.1348263 559.09561864 15.52633609 558.53606089 12.15155641 556.07528404 C8.68772007 551.38632492 6.21317311 546.22282921 3.77655641 540.95028404 C-0.81858887 531.62870361 -9.82862326 524.49928731 -19.08281859 519.98544029 C-21.48135866 518.74902473 -21.78086606 517.54405707 -22.84844359 515.07528404 C-24.33980499 512.55838566 -24.33980499 512.55838566 -25.84844359 510.05184654 C-29.63295172 502.5715297 -29.510045 494.67377888 -29.97149047 486.46004967 C-30.55950518 477.65042386 -31.60436731 469.20655137 -38.00618847 462.62435255 C-44.59479745 457.08429102 -53.71407005 457.64673406 -61.82879027 457.68760399 C-63.76027836 457.67952568 -63.76027836 457.67952568 -65.73078641 457.67128418 C-69.28464596 457.65688554 -72.83827251 457.66105663 -76.39214452 457.66845099 C-80.23270705 457.67319419 -84.07321999 457.66066275 -87.91376647 457.65043358 C-95.42939389 457.63326354 -102.94493765 457.63240172 -110.4605796 457.63764648 C-116.57013643 457.64169228 -122.67966858 457.64023977 -128.78922423 457.63489822 C-129.65964511 457.6341498 -130.53006598 457.63340138 -131.42686325 457.63263028 C-133.19525286 457.63109876 -134.96364248 457.62956042 -136.73203208 457.62801531 C-153.30391566 457.61429711 -169.87575199 457.61972348 -186.44763448 457.63120052 C-201.60180046 457.64113519 -216.75584437 457.628187 -231.90999153 457.60426633 C-247.48077348 457.57987364 -263.0514986 457.57026769 -278.62229928 457.57691906 C-287.35998388 457.58041051 -296.0975746 457.5781839 -304.83524474 457.56066803 C-312.27222895 457.54594406 -319.70905312 457.54531328 -327.1460342 457.56273894 C-330.93861101 457.57124919 -334.73090194 457.57339805 -338.52346381 457.55808739 C-342.63857306 457.54168048 -346.75299307 457.55639175 -350.86809691 457.5740786 C-352.658038 457.55967109 -352.658038 457.55967109 -354.48413952 457.54497252 C-362.9313294 457.61968438 -369.4317241 458.88139409 -375.72344359 464.76278404 C-379.99476513 471.42102056 -381.29926665 478.03343554 -381.23662718 485.84872154 C-381.24188414 486.67438621 -381.2471411 487.50005089 -381.25255736 488.3507357 C-381.26564489 491.05078379 -381.25705958 493.75023109 -381.24688109 496.45028404 C-381.24890506 498.34400263 -381.25181919 500.23772045 -381.2555786 502.13143639 C-381.25998673 506.08870633 -381.25361975 510.0457723 -381.23955687 514.00301842 C-381.22246595 519.05664025 -381.23231526 524.10978397 -381.25027426 529.16338829 C-381.26115304 533.070356 -381.25764702 536.97721175 -381.24989089 540.88418297 C-381.24790018 542.74677307 -381.25030812 544.60937359 -381.25732955 546.47195152 C-381.26501178 549.08218759 -381.25324605 551.69166637 -381.23662718 554.30184654 C-381.24269988 555.05951317 -381.24877257 555.81717979 -381.25502928 556.59780601 C-381.177315 563.23960182 -379.58865695 569.17492845 -376.16094359 574.88778404 C-365.80833136 584.68079561 -348.42396794 583.37656373 -335.06858214 583.3225222 C-333.65763148 583.32411593 -332.2466816 583.32658507 -330.83573379 583.32983861 C-327.00918849 583.33617318 -323.18275113 583.33024613 -319.35621306 583.32207433 C-315.2095314 583.31543474 -311.0628606 583.32045937 -306.91617735 583.32395653 C-298.81194854 583.32897397 -290.70776083 583.32338751 -282.60353713 583.31410623 C-273.14608369 583.30366888 -263.6886389 583.30379385 -254.23118079 583.30427881 C-237.34309506 583.30477844 -220.45502832 583.2956455 -203.56694945 583.28109459 C-187.21831312 583.26701595 -170.86969349 583.25992364 -154.52105101 583.26058678 C-153.01114163 583.26064671 -153.01114163 583.26064671 -151.47072904 583.26070786 C-150.46578227 583.26074821 -149.4608355 583.26078856 -148.4254358 583.26083014 C-129.76099472 583.26152209 -111.09656066 583.25561706 -92.43212186 583.24667693 C-85.85650637 583.24367471 -79.28089219 583.24259904 -72.70527609 583.24214462 C-64.67774177 583.24145858 -56.65021931 583.23694026 -48.62269001 583.22781181 C-44.53525806 583.22323179 -40.44784116 583.22013408 -36.36040648 583.22140602 C-14.47234618 583.25075362 -14.47234618 583.25075362 7.39077894 582.30113415 C16.13473602 581.77602368 24.86293709 581.91209333 33.60217801 582.43524078 C47.0737666 583.22721759 60.53204179 583.2208952 74.02265016 583.20809654 C76.56367097 583.20877215 79.10469171 583.20974431 81.64571229 583.21099571 C86.93274031 583.21245872 92.21975553 583.21046088 97.50678102 583.20565514 C103.58154126 583.20019645 109.656268 583.20199468 115.73102746 583.20748154 C121.63529106 583.2125965 127.53954442 583.21201761 133.4438099 583.20909981 C135.93108794 583.20843725 138.41836684 583.20923523 140.90564386 583.21157936 C166.54195152 584.85602291 166.54195152 584.85602291 189.08905641 575.38778404 C193.27288862 568.66829594 194.60174555 562.0705787 194.55560914 554.24178795 C194.5624724 553.40958229 194.56933565 552.57737663 194.57640687 551.71995262 C194.59455366 548.9970719 194.59085446 546.27477415 194.58515016 543.55184654 C194.58971812 541.64049823 194.59502552 539.72915156 194.60103456 537.81780723 C194.60994216 533.82185902 194.60756979 529.82611091 194.59760133 525.83016685 C194.58612107 520.73404757 194.60632085 515.6386222 194.63551847 510.54259399 C194.65395191 506.59779261 194.65357371 502.65315529 194.64788095 498.70832161 C194.64772857 496.83062871 194.65370292 494.9529241 194.66617242 493.0752726 C195.15513165 477.31767885 195.15513165 477.31767885 188.73967592 463.38671593 C182.46830615 457.73888903 174.94441243 456.92585954 166.82440797 457.00790123 C164.97836976 457.02161766 164.97836976 457.02161766 163.09503786 457.03561119 C159.7879218 457.06888198 156.48123361 457.08664811 153.17398302 457.09668068 Z M-367.22344359 607.63778404 C-370.13855532 613.80436654 -369.92102304 619.03395678 -367.66094359 625.44247154 C-356.50137423 649.53211885 -334.1000817 664.11067073 -309.84844359 673.07528404 C-301.30344704 675.72919082 -292.82332766 677.19731483 -283.86294039 677.20671181 C-282.85765394 677.20979076 -282.85765394 677.20979076 -281.83205866 677.21293191 C-279.59422048 677.21857052 -277.35644445 677.21714856 -275.11860045 677.21572594 C-273.49466529 677.21831139 -271.87073076 677.22132505 -270.24679711 677.22472934 C-265.78987752 677.23278167 -261.33297405 677.23458793 -256.87604805 677.2353268 C-252.06668146 677.23718048 -247.25732318 677.24472947 -242.44796141 677.25146202 C-231.9331753 677.26503407 -221.418393 677.27106852 -210.90359958 677.27547268 C-204.33420775 677.27823743 -197.76481739 677.28247525 -191.19542655 677.28697685 C-172.9961868 677.29916884 -154.79694823 677.30946778 -136.59770449 677.31285194 C-135.43326889 677.31307151 -134.26883328 677.31329108 -133.06911175 677.31351729 C-131.90193135 677.31373557 -130.73475094 677.31395385 -129.53220143 677.31417874 C-127.1671565 677.3146222 -124.80211157 677.31506877 -122.43706664 677.31551842 C-121.26392928 677.31573985 -120.09079192 677.31596128 -118.88210495 677.31618942 C-99.88498675 677.32013507 -80.88790697 677.3375823 -61.89080361 677.36087794 C-42.37292903 677.38461835 -22.8550737 677.39705505 -3.33718445 677.39821986 C7.61571259 677.39913519 18.56855959 677.40485163 29.52144281 677.42303947 C38.85071168 677.43847688 48.17991506 677.44353955 57.50919428 677.43530137 C62.26457519 677.43140753 67.01982434 677.43226223 71.77518884 677.44635872 C76.1385038 677.45917408 80.50158904 677.4578338 84.86490403 677.44576801 C86.43361195 677.44382412 88.00233658 677.44682804 89.57102111 677.45561237 C105.82536581 677.54078495 120.27544608 674.84295655 135.15155641 668.07528404 C136.33749391 667.54934654 137.52343141 667.02340904 138.74530641 666.48153404 C157.07216664 657.88575004 173.49954046 643.60102026 181.71405641 624.76278404 C183.47588535 619.74522512 184.28427164 615.35278551 182.49140016 610.16512779 C180.17635393 605.44483872 176.88023686 603.29422144 172.15155641 601.07528404 C160.23834167 598.24957265 147.55466191 598.79137858 135.39118043 598.82131676 C133.33049813 598.81900804 131.26981666 598.81582877 129.20913688 598.81186227 C123.58676827 598.80356214 117.96446811 598.80761767 112.34209935 598.8138347 C106.26294021 598.81837787 100.18379247 598.81136621 94.10463563 598.80587486 C82.89762291 598.79751118 71.69063194 598.79821372 60.48361968 598.8036978 C50.12831596 598.80873988 39.77302016 598.81003721 29.41771547 598.80765251 C28.72935025 598.80749974 28.04098504 598.80734697 27.33176028 598.80718957 C24.53707445 598.80656684 21.74238863 598.80593003 18.94770281 598.80527004 C-7.23910249 598.79915962 -33.42589402 598.80468693 -59.61269718 598.81546384 C-82.8499781 598.8249542 -106.08723709 598.82410491 -129.32451781 598.81454185 C-155.46511809 598.80381978 -181.60570623 598.79959306 -207.74630841 598.80576638 C-210.53573982 598.80640776 -213.32517123 598.80703345 -216.11460265 598.80765251 C-217.14475662 598.80788974 -217.14475662 598.80788974 -218.19572179 598.80813177 C-228.54149833 598.81040143 -238.88726605 598.80775604 -249.23304137 598.8026934 C-261.00315459 598.7969623 -272.7732469 598.79862286 -284.54335853 598.80925489 C-290.54430642 598.81449761 -296.54520991 598.81659224 -302.54615744 598.80995659 C-308.04707778 598.80396601 -313.54791285 598.80732325 -319.04882552 598.81791169 C-321.03112134 598.82013259 -323.01342447 598.81903916 -324.99571552 598.81416012 C-347.97846161 597.67017534 -347.97846161 597.67017534 -367.22344359 607.63778404 Z " fill="#000000" transform="translate(815.8484435901046,273.92471595853567)"/>
<path d="M0 0 C2.7782461 -0.00131985 5.55649026 -0.00413224 8.33473527 -0.00686532 C14.35601079 -0.01199311 20.37727827 -0.01344111 26.39855576 -0.01240921 C35.35300942 -0.01087843 44.30745426 -0.01505894 53.2619062 -0.02028384 C70.18873869 -0.02993521 87.11556814 -0.03276724 104.04240306 -0.03334089 C117.11773024 -0.03380111 130.19305623 -0.03586298 143.26838303 -0.03904152 C147.0373228 -0.03993911 150.80626257 -0.04082893 154.57520235 -0.0417164 C155.51227155 -0.04193744 156.44934076 -0.04215849 157.414806 -0.04238624 C183.75874357 -0.04853705 210.10268072 -0.05248714 236.44661903 -0.05204296 C237.43905579 -0.05202738 238.43149254 -0.0520118 239.45400314 -0.05199575 C244.48364895 -0.05191265 249.51329476 -0.05181361 254.54294057 -0.05171105 C256.04119691 -0.05168113 256.04119691 -0.05168113 257.56972104 -0.05165061 C259.58961215 -0.05161017 261.60950325 -0.05156837 263.62939435 -0.05152521 C295.05016523 -0.05091257 326.47092532 -0.05841849 357.89169312 -0.07209778 C393.22409283 -0.08747383 428.55648545 -0.0960631 463.88888872 -0.09513456 C467.65971462 -0.09505993 471.43054052 -0.09501122 475.20136642 -0.09498024 C476.12978254 -0.09496859 477.05819865 -0.09495693 478.01474858 -0.09494492 C492.92405186 -0.09491421 507.83334573 -0.10128684 522.74264621 -0.1099125 C537.73841573 -0.1184085 552.73417156 -0.11936371 567.72994216 -0.11280318 C576.62588414 -0.10912063 585.52178437 -0.11090101 594.41772189 -0.12074552 C600.37502029 -0.12677816 606.3322887 -0.12541389 612.28958576 -0.11827503 C615.67383767 -0.11442101 619.05794437 -0.11466768 622.4422005 -0.12173238 C634.62585848 -0.14546635 646.73874936 -0.05374297 658.88245201 1.01635265 C660.19203413 1.13105443 660.19203413 1.13105443 661.52807245 1.24807342 C669.62807105 2.06072623 677.06847972 4.17817084 684.63632202 7.13371277 C685.3954187 7.42552429 686.15451538 7.71733582 686.93661499 8.01799011 C722.80892166 21.9824371 752.61967987 47.62920311 768.63632202 83.13371277 C780.23772845 109.75246569 780.7930573 134.96706758 780.77099094 163.65440584 C780.76934006 167.24911176 780.77351331 170.84381208 780.77690011 174.43851614 C780.78202713 180.72435922 780.78347603 187.01019461 780.782444 193.29603958 C780.780913 202.64404509 780.78509422 211.99204215 780.79031863 221.34004601 C780.79996946 239.01147937 780.80280202 256.68290982 780.80337568 274.3543455 C780.80383595 288.00599605 780.80589805 301.65764547 780.80907631 315.30929565 C780.80997391 319.24475018 780.81086372 323.18020471 780.81175119 327.11565924 C780.81197223 328.09414008 780.81219328 329.07262092 780.81242103 330.0807527 C780.81857183 357.58891752 780.82252194 385.09708195 780.82207775 412.6052475 C780.82206217 413.64152839 780.82204659 414.67780928 780.82203054 415.74549262 C780.82194744 420.9973002 780.8218484 426.24910777 780.82174584 431.50091535 C780.82171592 433.06534007 780.82171592 433.06534007 780.8216854 434.66136933 C780.82164496 436.77046665 780.82160316 438.87956396 780.82156 440.98866128 C780.82094744 473.79255007 780.82845173 506.59642851 780.84213257 539.40031433 C780.85751181 576.29144257 780.86609768 613.18256401 780.86516935 650.07369566 C780.86509472 654.01166503 780.86504601 657.94963439 780.86501503 661.88760376 C780.86499755 663.34194655 780.86499755 663.34194655 780.86497971 664.82566999 C780.86494901 680.38985802 780.8713193 695.95403702 780.87994729 711.51822237 C780.8884473 727.17596417 780.8893954 742.83369286 780.88283797 758.49143571 C780.87915798 767.77778551 780.88092802 777.06409531 780.89078031 786.35044083 C780.89681968 792.57176779 780.89544137 798.79306606 780.88830982 805.01439175 C780.88446137 808.54694726 780.88355516 812.07942591 780.89176717 815.61197573 C780.91634986 828.76377666 780.76362104 841.84317533 779.75368214 854.96143341 C779.67721428 855.97011558 779.60074643 856.97879775 779.52196137 858.01804605 C778.78101272 866.54857447 776.8223927 874.1675665 773.63632202 882.13371277 C773.3445105 882.88845886 773.05269897 883.64320496 772.75204468 884.42082214 C758.66108463 920.64007945 733.59198735 949.69389136 697.94613647 966.03630066 C685.3865908 971.55760991 673.00208896 976.25820582 659.22966099 977.30924606 C658.24457205 977.38871809 657.25948311 977.46819012 656.24454299 977.55007039 C643.63895865 978.47291444 631.02490013 978.41070357 618.39289856 978.38768005 C615.60448425 978.38888171 612.81607616 978.39308786 610.02766472 978.39713454 C604.00585653 978.40429799 597.98408432 978.40417615 591.96227455 978.39904022 C583.00714848 978.39142354 574.05205234 978.39536934 565.09692642 978.40145684 C549.09626439 978.41195015 533.0956184 978.41109085 517.09495486 978.40529901 C503.0926143 978.40025577 489.09027959 978.39896014 475.08793831 978.4013443 C474.15692799 978.40149707 473.22591767 978.40164984 472.26669491 978.40180724 C468.48685301 978.40242998 464.70701111 978.40306678 460.92716921 978.40372677 C425.51457496 978.40983621 390.10199089 978.40431134 354.68939822 978.39353297 C323.26748521 978.38404193 291.84558841 978.38489267 260.42367554 978.39445496 C225.07181314 978.4051774 189.71995973 978.40940361 154.36809593 978.40323043 C150.59569395 978.40258905 146.82329196 978.40196337 143.05088997 978.4013443 C141.65772933 978.40110707 141.65772933 978.40110707 140.23642403 978.40086504 C126.24649027 978.39859561 112.25656303 978.40124032 98.26663017 978.40630341 C82.35105977 978.41203489 66.43550783 978.41056465 50.51993971 978.39974192 C41.62618537 978.39389264 32.73247105 978.39345212 23.83871779 978.40103427 C17.88312289 978.40554917 11.92755979 978.40267405 5.97196956 978.39402473 C2.58881665 978.38930963 -0.79419317 978.38867605 -4.17735309 978.39483669 C-16.35810076 978.41530316 -28.46847526 978.3203335 -40.60923672 977.25065231 C-41.48232599 977.17420975 -42.35541527 977.09776718 -43.25496179 977.01900817 C-51.35525433 976.20672337 -58.7956019 974.089346 -66.36367798 971.13371277 C-67.12277466 970.84190125 -67.88187134 970.55008972 -68.66397095 970.24943542 C-102.63933739 957.02343332 -132.57979987 932.66407459 -148.36367798 899.13371277 C-157.14756857 879.07832787 -161.53222485 861.2783567 -161.49231243 839.36641407 C-161.49406547 838.13190178 -161.49581851 836.8973895 -161.49762467 835.62546775 C-161.50145719 832.2189853 -161.50086498 828.81255729 -161.49834689 825.40607721 C-161.49670507 821.69229844 -161.50086189 817.97852524 -161.50425607 814.26474828 C-161.5093974 807.7623264 -161.51082947 801.25991196 -161.50979996 794.75748825 C-161.50827272 785.08778169 -161.51244188 775.41808335 -161.51767458 765.74837839 C-161.52733871 747.47181185 -161.53015847 729.19524812 -161.53073164 710.91867933 C-161.53119141 696.80345366 -161.53325095 682.68822909 -161.53643227 668.57300377 C-161.53732983 664.50804287 -161.53821964 660.44308198 -161.53910714 656.37812108 C-161.53932819 655.36752408 -161.53954924 654.35692708 -161.53977699 653.31570592 C-161.54592999 624.89480611 -161.54987767 596.47390668 -161.54943371 568.05300617 C-161.54941813 566.98177053 -161.54940255 565.91053489 -161.5493865 564.80683756 C-161.54930339 559.37752806 -161.54920435 553.94821857 -161.54910179 548.51890907 C-161.54908185 547.44065331 -161.5490619 546.36239754 -161.54904135 545.25146736 C-161.54900092 543.07097227 -161.54895912 540.89047718 -161.54891596 538.70998208 C-161.54830322 504.78587305 -161.55581001 470.86177402 -161.56948853 436.93766785 C-161.58485454 398.81281034 -161.59345444 360.68795941 -161.5925253 322.56309861 C-161.59245067 318.49656594 -161.59240197 314.43003327 -161.59237099 310.3635006 C-161.59235933 309.36223754 -161.59234768 308.36097449 -161.59233567 307.32937013 C-161.59230492 291.22867345 -161.598686 275.12798546 -161.60730325 259.02729136 C-161.61578682 242.84146014 -161.61676416 226.65564161 -161.61019393 210.46980939 C-161.60650307 200.85964474 -161.60831678 191.24951869 -161.61813627 181.63935814 C-161.6241474 175.21221904 -161.62282823 168.78510783 -161.61566577 162.35797 C-161.61179385 158.70121484 -161.61098078 155.04453423 -161.61912312 151.3877844 C-161.69822342 113.34270966 -161.69822342 113.34270966 -156.30117798 99.25871277 C-155.84327881 98.01964172 -155.84327881 98.01964172 -155.37612915 96.75553894 C-147.28312298 75.37920385 -136.34015718 57.50960395 -120.36367798 41.13371277 C-119.72430298 40.43246277 -119.08492798 39.73121277 -118.42617798 39.00871277 C-86.95383363 5.36586192 -43.42927283 -0.02777387 0 0 Z M-60.73867798 50.44621277 C-61.58172485 50.84082703 -62.42477173 51.23544128 -63.29336548 51.64201355 C-88.9944926 63.89268583 -104.53443476 83.85816531 -115.30117798 109.82121277 C-120.88151549 126.0325712 -120.80032247 141.96922004 -120.74908064 158.93734397 C-120.7414043 162.59119698 -120.75127625 166.24501244 -120.75881064 169.89885998 C-120.76960183 176.28983506 -120.76934417 182.68073399 -120.76166916 189.07171249 C-120.75028707 198.57556688 -120.75614086 208.07935744 -120.76529408 217.58321145 C-120.78106714 234.56044378 -120.77973177 251.53764218 -120.77105734 268.51487771 C-120.76350359 283.3721505 -120.76154388 298.22941086 -120.76512527 313.08668518 C-120.76535443 314.07311495 -120.76558359 315.05954472 -120.76581968 316.0758663 C-120.76675374 320.0803458 -120.76770894 324.0848253 -120.76869898 328.08930479 C-120.77787107 365.63614122 -120.76956337 403.18295608 -120.75340828 440.72978918 C-120.73917202 474.07049662 -120.74044592 507.41116969 -120.75479126 540.75187683 C-120.77086344 578.23108733 -120.77722053 615.71027876 -120.76795447 653.18949223 C-120.76699235 657.18657493 -120.76605383 661.18365764 -120.76512527 665.18074036 C-120.76488804 666.16488703 -120.76465081 667.14903369 -120.76440639 668.16300299 C-120.76099739 683.00906961 -120.76497842 697.85512243 -120.77256393 712.70118713 C-120.78114817 729.58585037 -120.77898342 746.47047445 -120.7627217 763.35513282 C-120.75392579 772.79890915 -120.75331908 782.24260063 -120.76466023 791.68637472 C-120.77140591 798.00119221 -120.76716732 804.31594193 -120.75414592 810.63074941 C-120.74703675 814.22412326 -120.7445123 817.81732901 -120.75536387 821.41069734 C-120.8047091 839.05156148 -120.71805148 855.69030016 -113.73867798 872.19621277 C-113.39167847 873.03345886 -113.04467896 873.87070496 -112.68716431 874.73332214 C-106.98858049 888.08305345 -99.67174116 898.94603573 -89.36367798 909.13371277 C-88.63535767 909.87234558 -87.90703735 910.61097839 -87.15664673 911.37199402 C-65.74551628 931.82975317 -36.84349609 936.76629726 -8.50960673 936.64758299 C-4.99522183 936.63734127 -1.48090603 936.65051299 2.03346878 936.66055632 C8.1795998 936.67493999 14.32559004 936.67460394 20.47172737 936.66436768 C29.61154391 936.64918715 38.75124251 936.65699886 47.89105835 936.6692009 C64.21855679 936.69022859 80.54599249 936.68845233 96.87349684 936.67688525 C111.16281852 936.66681216 125.45211723 936.66420128 139.74144173 936.66897583 C141.16472165 936.66943414 141.16472165 936.66943414 142.61675471 936.66990171 C146.4687354 936.67114712 150.32071608 936.67242073 154.17269674 936.67374077 C190.28818675 936.6859696 226.40363687 936.67489447 262.51912071 936.65335318 C294.58433223 936.63437309 326.6494802 936.63606881 358.71469116 936.65519714 C394.76377161 936.6766303 430.81281684 936.68510071 466.86190277 936.67274809 C470.70706402 936.67146528 474.55222529 936.67021391 478.39738655 936.66897583 C479.34412073 936.66865952 480.29085492 936.66834321 481.26627801 936.66801732 C495.54364711 936.66347331 509.82099069 936.66877758 524.09835625 936.67889404 C540.33815007 936.69034385 556.5778715 936.68744463 572.81765633 936.66577107 C581.89909609 936.65404979 590.98037898 936.65322452 600.06181457 936.66835576 C606.13639058 936.67735817 612.21084145 936.67168408 618.28539899 936.65433669 C621.74077414 936.64486878 625.19583886 936.64146804 628.65120368 936.65596062 C646.38174398 936.71404805 662.71380449 936.09837643 679.01132202 928.32121277 C679.76115356 927.97356873 680.51098511 927.62592468 681.28353882 927.26774597 C709.50669278 913.9036913 724.6025867 892.55199471 735.40975952 864.14543152 C738.39051403 855.09944973 738.92784805 846.03213673 738.89079762 836.57478619 C738.89400409 835.3506592 738.89721057 834.12653221 738.90051422 832.86531046 C738.90736005 829.48325378 738.90532759 826.10141862 738.89945849 822.71937457 C738.89527239 819.0339148 738.90269906 815.34847484 738.908611 811.66301996 C738.91736113 805.20886136 738.91868934 798.75473449 738.91510773 792.30057144 C738.90979571 782.70277869 738.91590106 773.10501661 738.92419066 763.5072272 C738.93942732 745.36754375 738.94113607 727.22787426 738.93866763 709.08818575 C738.93683464 695.08017461 738.93859471 681.07216805 738.94289207 667.06415749 C738.94349448 665.05130134 738.94409567 663.0384452 738.94469568 661.02558905 C738.94560294 657.9923688 738.9465116 654.95914854 738.94742803 651.92592829 C738.95585709 623.72615518 738.96019357 595.5263838 738.95602131 567.32660961 C738.95586493 566.26362946 738.95570856 565.20064931 738.95554744 564.10545763 C738.95474167 558.71791272 738.95389589 553.3303678 738.95303414 547.9428229 C738.95286305 546.87284884 738.95269196 545.80287478 738.95251569 544.70047726 C738.95216904 542.53673024 738.95182051 540.37298321 738.95147011 538.20923618 C738.94611276 504.54041529 738.9540439 470.87162058 738.97250366 437.20280457 C738.99322163 399.37096821 739.00394678 361.53914808 738.99992818 323.70730573 C738.99953283 319.67310894 738.99917129 315.63891214 738.9988308 311.60471535 C738.99874006 310.61140243 738.99864933 309.61808951 738.99855585 308.5946762 C738.99739011 293.60270402 739.00403642 278.61074822 739.01464272 263.61878014 C739.02669343 246.56778731 739.02825513 229.51683057 739.01585255 212.4658372 C739.009224 202.92612715 739.01085495 193.38650339 739.02444106 183.84680024 C739.032689 177.47041555 739.02998353 171.09409547 739.0184658 164.71771603 C739.01221282 161.08744622 739.01059954 157.45734473 739.02232913 153.82708468 C739.03487491 149.90802669 739.02400646 145.98922357 739.01105213 142.07016277 C739.02201615 140.39735347 739.02201615 140.39735347 739.03320166 138.69075003 C738.87788749 115.98122862 728.91704813 91.95074168 713.63632202 75.13371277 C712.82550171 74.23007996 712.0146814 73.32644714 711.17929077 72.39543152 C695.97883593 56.3047597 672.221374 43.51205556 649.879597 42.87248326 C649.15144496 42.85632844 648.42329293 42.84017361 647.67307568 42.82352924 C646.88142043 42.80318957 646.08976519 42.78284989 645.2741204 42.76189386 C642.60192108 42.6961067 639.92963633 42.63840619 637.25721741 42.58227539 C635.83126992 42.55090431 635.83126992 42.55090431 634.37651541 42.51889948 C607.75113599 41.94638283 581.12068383 41.96947556 554.49049022 41.95987289 C546.70531649 41.95688001 538.92015125 41.94813117 531.13498214 41.93946702 C512.36797286 41.91888445 493.60096226 41.90820412 474.83394437 41.89933742 C465.94035504 41.89510244 457.04676635 41.88988531 448.15317756 41.88465289 C417.63901218 41.86680645 387.12484657 41.85180606 356.61067677 41.8443327 C354.70533597 41.84385797 352.79999517 41.84338208 350.89465437 41.84290503 C349.94995434 41.84266866 349.0052543 41.84243228 348.031927 41.84218874 C343.2469825 41.84098775 338.462038 41.83977222 333.67709351 41.83854675 C332.25283805 41.83818653 332.25283805 41.83818653 330.79980976 41.83781903 C299.9290048 41.82990426 269.05823797 41.80640536 238.18744969 41.77399081 C205.44916102 41.73967852 172.71089471 41.71998163 139.97258776 41.71668845 C136.37950336 41.71627097 132.78641897 41.71579142 129.19333458 41.71526527 C128.30879473 41.71514208 127.42425487 41.71501889 126.51291078 41.71489197 C112.3108159 41.71256496 98.10876582 41.69693669 83.90668689 41.67642343 C69.6470271 41.65615252 55.38742096 41.65069472 41.12774942 41.66019406 C32.66825144 41.6653994 24.20893249 41.65957643 15.74946037 41.63765939 C10.09046297 41.62410934 4.43158825 41.62526508 -1.22741049 41.63806135 C-4.4449713 41.64492888 -7.66212519 41.64348213 -10.87966814 41.62850126 C-28.6324097 41.55098776 -44.50552373 42.65307307 -60.73867798 50.44621277 Z " fill="#000000" transform="translate(413.3636779785156,132.8662872314453)"/>
<path d="M0 0 C7.42513484 5.5353442 13.92630675 12.21336756 16.6875 21.25 C17.92029884 32.09862975 16.27440913 40.75896699 9.9375 49.7890625 C4.28037248 56.24457495 -3.05894606 61.25411586 -11.67578125 62.3359375 C-21.73632946 62.48498266 -29.69413987 58.93594316 -37 52 C-42.94163107 44.87541975 -46.69727281 36.70208229 -46.2734375 27.3125 C-45.05173356 16.98037525 -40.45402317 9.54641993 -32.46484375 2.88671875 C-22.09564145 -4.6673155 -11.37422292 -7.00110111 0 0 Z " fill="#000000" transform="translate(820,196)"/>
<path d="M0 0 C7.51722951 5.4053657 13.06037634 12.60262892 15.16796875 21.74609375 C16.30352271 30.69425893 14.86962785 39.00295236 9.4609375 46.3671875 C3.05423774 53.77912258 -4.84813255 59.25424788 -14.671875 60.875 C-23.51399879 61.33713191 -30.61601539 56.90807903 -37.2734375 51.484375 C-43.0759211 45.92184373 -46.86695894 39.24806425 -47.6875 31.1953125 C-47.81110138 20.26895061 -45.95270686 12.3786474 -38.34375 4.3125 C-26.41685718 -6.58540599 -13.73645509 -8.80776024 0 0 Z " fill="#000000" transform="translate(940.3515625,197.5078125)"/>
<path d="M0 0 C8.43243511 6.25671935 15.00205957 13.46540503 17 24 C17.77458345 32.17462174 16.95797456 39.88168176 12.078125 46.67578125 C5.3879013 54.46181746 -1.54339911 60.03555623 -12 61 C-22.10636397 61.25191816 -30.01487648 58.09866959 -37.375 51.1875 C-43.87270918 44.23035684 -46.37915949 36.89278851 -46.20703125 27.45703125 C-45.3783179 17.62192381 -40.97500195 10.59986715 -33.82421875 3.98828125 C-23.29566084 -4.6855048 -12.23999745 -6.98091598 0 0 Z " fill="#000000" transform="translate(1057,196)"/>
<path d="M0 0 C7.52473994 4.62138895 13.60030536 10.76916033 17 19 C19.27376025 28.57205366 18.68669257 37.84527157 13.59375 46.34765625 C8.11583172 54.08650778 0.40176429 59.29058831 -9 61 C-18.05620308 61.92068608 -25.78465815 59.57549143 -33 54 C-39.69618021 48.12042713 -44.29247237 40.86049113 -45.21875 31.87890625 C-45.61028302 22.46579997 -42.17524976 14.06278566 -36 7 C-24.6076817 -2.9813431 -14.07215074 -7.13548617 0 0 Z " fill="#000000" transform="translate(428,492)"/>
</svg>
